<?xml version="1.0" encoding="utf-8"?>
<!-- Generator: Adobe Illustrator 15.1.0, SVG Export Plug-In . SVG Version: 6.00 Build 0)  -->
<!DOCTYPE svg PUBLIC "-//W3C//DTD SVG 1.1//EN" "http://www.w3.org/Graphics/SVG/1.1/DTD/svg11.dtd">
<svg version="1.1" id="Layer_1" xmlns="http://www.w3.org/2000/svg" xmlns:xlink="http://www.w3.org/1999/xlink" x="0px" y="0px"
	 width="411.934px" height="61.887px" viewBox="0 0 411.934 61.887" enable-background="new 0 0 411.934 61.887"
	 xml:space="preserve">
<g>
	<defs>
		<rect id="SVGID_1_" width="411.934" height="61.887"/>
	</defs>
	<clipPath id="SVGID_2_">
		<use xlink:href="#SVGID_1_"  overflow="visible"/>
	</clipPath>
	<path clip-path="url(#SVGID_2_)" fill="#FF0077" d="M8.523,2.139c-2.878,0-5.069,0.936-6.518,2.779C0.654,6.611,0,9.035,0,12.324
		v38.179c0,3.292,0.654,5.699,2.005,7.393c1.449,1.817,3.64,2.746,6.518,2.746c2.875,0,5.069-0.929,6.518-2.746
		c1.35-1.708,2.015-4.113,2.015-7.393V12.324c0-3.274-0.665-5.698-2.015-7.406C13.592,3.075,11.398,2.139,8.523,2.139"/>
	<path clip-path="url(#SVGID_2_)" fill="#FF0077" d="M409.58,3.956c-1.535-1.419-3.331-2.14-5.287-2.14
		c-1.557,0-3.117,0.508-4.682,1.501c-1.419,0.925-2.772,2.221-4.063,3.895l-9.366,12.11l-9.228-12.008
		c-1.402-1.776-2.736-3.072-4.019-3.951c-1.412-0.985-2.899-1.492-4.372-1.492c-2.296,0-4.264,0.698-5.857,2.046
		c-1.599,1.36-2.412,3.032-2.412,4.942c0,1.994,1.092,4.307,3.397,7.25l13.865,17.847v17.531c0,3.377,0.668,5.847,2.013,7.584
		c1.439,1.863,3.64,2.816,6.539,2.816c2.837,0,5.001-0.953,6.452-2.816c1.358-1.752,2.011-4.22,2.011-7.584V33.956l13.84-17.933
		l0.333-0.403c2.149-2.748,3.189-5.004,3.189-6.911C411.934,6.96,411.149,5.367,409.58,3.956"/>
	<path clip-path="url(#SVGID_2_)" fill="#FF0077" d="M55.405,15.257c4.537,0,8.101,1.709,11.119,4.433l0.01-0.018
		c1.423,1.567,3.492,2.579,5.828,2.579c4.262,0,7.709-3.265,7.709-7.273c0-2.256-1.105-4.235-2.811-5.555
		c-5.807-5.29-13.135-8.57-21.855-8.57c-17.77,0-32.198,13.487-32.198,30.101c0,16.626,14.428,30.111,32.198,30.111
		c8.66,0,15.951-3.241,21.74-8.471c1.764-1.309,2.926-3.359,2.926-5.643c0-4.012-3.447-7.269-7.709-7.269
		c-2.226,0-4.222,0.917-5.629,2.335c-3.034,2.862-6.684,4.631-11.328,4.631c-9.274,0-16.781-7.011-16.781-15.695
		C38.624,22.294,46.131,15.257,55.405,15.257"/>
	<path clip-path="url(#SVGID_2_)" fill="#FF0077" d="M122.247,0.853H92.93c-4.418,0-8,3.174-8,7.09c0,3.916,3.582,7.091,8,7.091
		h29.317c4.418,0,8-3.175,8-7.091C130.247,4.027,126.665,0.853,122.247,0.853"/>
	<path clip-path="url(#SVGID_2_)" fill="#00B7E8" d="M122.247,23.869H92.93c-4.418,0-8,3.174-8,7.09s3.582,7.09,8,7.09h29.317
		c4.418,0,8-3.174,8-7.09S126.665,23.869,122.247,23.869"/>
	<path clip-path="url(#SVGID_2_)" fill="#FF0077" d="M122.247,46.884H92.93c-4.418,0-8,3.174-8,7.09s3.582,7.09,8,7.09h29.317
		c4.418,0,8-3.174,8-7.09S126.665,46.884,122.247,46.884"/>
	<path clip-path="url(#SVGID_2_)" fill="#FF0077" d="M327.293,0h-13.92c-6.076,0-11.002,4.283-11.002,9.566v24.628L278.554,6.157
		c-2.874-3.383-8.22-4.007-11.941-1.394l-0.186,0.131c-3.72,2.613-4.407,7.473-1.533,10.856l35.086,41.299l0.092,0.107
		c1.691,2.162,4.461,3.587,7.619,3.715c0.854-0.022,1.699-0.177,2.523-0.437c0.162,0.042,0.313,0.105,0.479,0.142
		c4.174-1.001,7.261-4.349,7.261-8.364l0.048-7.92V16.882v-0.278c0-2.003,1.867-3.627,4.172-3.627h5.092
		c9.61,0,17.4,6.774,17.4,15.131v4.681c0,5.216-3.09,9.74-7.712,12.453l-7.948,2.138c-4.021,1.081-6.291,4.846-5.071,8.408
		l0.08,0.232c1.219,3.563,5.467,5.575,9.487,4.494l2.247-0.604c0.026-0.006,0.053-0.015,0.079-0.021l2.208-0.593
		c0.004-0.001,0.006-0.003,0.009-0.003c12.938-3.881,22.251-14.523,22.251-27.094v-3.502C360.295,12.848,345.519,0,327.293,0"/>
	<path clip-path="url(#SVGID_2_)" fill="#FF0077" d="M230.319,25.892c-4.93,0-8.926,3.542-8.926,7.911
		c0,4.369,3.996,7.911,8.926,7.911c4.929,0,8.926-3.542,8.926-7.911C239.245,29.434,235.248,25.892,230.319,25.892"/>
	<path clip-path="url(#SVGID_2_)" fill="#FF0077" d="M261.239,26.948c0-14.412-13.183-26.096-29.444-26.096h-2.952
		c-15.087,0-27.467,10.071-29.182,23.034l-0.024-0.003c-0.718,3.791-1.197,6.581-1.649,8.33c-2.017,5.978-4.821,8.642-4.821,8.642
		c-9.321,9.563-27.03,6.195-29.516,5.665c-0.017-0.004-0.033-0.007-0.049-0.01c-0.168-0.036-0.217-0.069-0.217-0.069
		c-0.071-0.034-0.138-0.04-0.092-0.032c-3.213-0.766-6.057-2.442-8.219-4.756c-3.111-2.839-5.036-6.768-5.036-11.118
		c0-8.66,7.667-15.697,17.138-15.697c3.113,0,5.749,0.822,8.097,2.155c1.147,0.651,2.247,1.385,3.259,2.279l0.01-0.019
		c1.453,1.567,3.566,2.579,5.952,2.579c0.31,0,0.605-0.052,0.906-0.084c3.919-0.421,6.966-3.466,6.966-7.189
		c0-1.579-0.576-3.007-1.505-4.184c-0.399-0.504-0.842-0.975-1.365-1.371c-5.653-5.042-12.732-8.223-21.093-8.513V0.482
		c-0.024,0.001-0.046,0.004-0.07,0.005c-0.388-0.013-0.763-0.054-1.157-0.054c-0.376,0-0.742,0.04-1.115,0.052
		c-0.012-0.001-0.024-0.002-0.036-0.003v0.004c-17.612,0.561-31.732,13.79-31.732,30.048c0,0.043,0.007,0.084,0.007,0.127
		c0,0.03-0.007,0.058-0.007,0.088c0,0.119,0.03,0.231,0.031,0.35c0.017,1.222,0.141,2.42,0.321,3.603
		c0.063,0.415,0.126,0.829,0.207,1.239c0.264,1.313,0.59,2.607,1.045,3.855c0.018,0.053,0.043,0.103,0.062,0.155
		c3.175,8.565,10.653,15.478,20.254,18.854c0.793,0.309,1.737,0.574,2.684,0.837c4.002,1.112,9.221,1.811,15.03,1.811
		c3.578,0,6.949-0.264,9.956-0.72c6.702-0.809,12.783-3.25,17.726-6.819c3.889-2.154,8.024-6.802,10.924-12.78
		c1.701-3.506,2.713-6.954,3.091-10.021l0.032-0.005l0.696-5.267c1.028-6.107,6.908-10.809,14.086-10.809
		c7.901,0,14.307,5.677,14.307,12.679v14.825h0.015v10.561c0,4.167,3.639,7.545,8.128,7.545h0.224c4.489,0,8.128-3.378,8.128-7.545
		V38.049h-0.055c0.012-0.308,0.055-0.606,0.055-0.916V26.948z"/>
</g>
</svg>
