<?xml version="1.0" encoding="utf-8"?>
<!-- Generator: Adobe Illustrator 15.1.0, SVG Export Plug-In . SVG Version: 6.00 Build 0)  -->
<!DOCTYPE svg PUBLIC "-//W3C//DTD SVG 1.1//EN" "http://www.w3.org/Graphics/SVG/1.1/DTD/svg11.dtd">
<svg version="1.1" id="Layer_1" xmlns="http://www.w3.org/2000/svg" xmlns:xlink="http://www.w3.org/1999/xlink" x="0px" y="0px"
	 width="120.955px" height="157.513px" viewBox="0 0 120.955 157.513" enable-background="new 0 0 120.955 157.513"
	 xml:space="preserve">
<g>
	<defs>
		<rect id="SVGID_1_" width="120.955" height="157.513"/>
	</defs>
	<clipPath id="SVGID_2_">
		<use xlink:href="#SVGID_1_"  overflow="visible"/>
	</clipPath>
	<path clip-path="url(#SVGID_2_)" fill="#ED1A77" d="M120.888,56.61c-0.483-5.571-0.744-6.699-1.996-12.118
		c-1.409-4.799-1.809-5.697-4.022-10.683l-1.798-3.396c6.753,12.219,1.962,21.264-1.494,25.569
		c-21.086,26.257-80.6,10.45-84.906-22.551c-1.222-9.364,3.214-18.878,10.888-24.042c7.945-5.348,18.34-8.725,27.921-6.963
		c7.239,1.333,17.533,4.847,20.368,12.481c3.248,8.747-7.399,14.505-15.967,10.97c-4.666-1.925-6.175-5.973-2.782-7.469
		c2.604,0.857,6.851-0.38,5.597-4.252c0.14-0.095,0.281-0.192,0.419-0.285c-3.786-7.395-21.45-8.827-29.627,2.257
		C30.8,33.325,56.479,56.374,84.497,52.936c21.244-2.606,35.425-22.443,12.142-41.032c-0.974-0.721-2.323-1.607-3.319-2.295
		c-2.332-1.494-2.501-1.58-6.829-3.802c-2.222-1.052-2.305-1.083-6.644-2.682c-2.161-0.725-2.243-0.745-6.543-1.791
		c-0.211-0.211-4.653-0.784-6.55-1.028C64.548,0.083,64.548,0.083,60.09,0c-2.33,0.023-2.33,0.023-6.89,0.457
		c-2.512,0.316-2.512,0.316-7.218,1.342c-2.772,0.704-2.863,0.736-7.634,2.458c-3.118,1.264-3.398,1.415-8.072,3.928
		c-3.494,2.094-3.862,2.379-8.365,5.873l-2.564,2.268C-0.49,36.146,8.368,56.63,13.096,64.518
		c23.733,39.581,98.874,43.085,107.201,5.001C121.041,63.549,121.012,62.217,120.888,56.61"/>
	<path clip-path="url(#SVGID_2_)" fill="#ED0080" d="M100.599,105.138C64.863,125.328-10.487,97.207,2.715,46.401l-1.113,4.058
		c-0.442,2.027-0.88,4.761-1.206,6.81c-0.54,6.001-0.465,7.332-0.148,12.933c0.674,5.55,0.973,6.668,2.411,12.042
		c1.573,4.748,2.003,5.632,4.387,10.539c0.882,1.601,2.17,3.673,3.133,5.228c5.448,7.931,14.044,15.985,24.257,20.969l-2.169,6.26
		l-7.214,20.304c-1.658,4.666,0.78,9.793,5.447,11.451c4.666,1.658,9.793-0.781,11.451-5.447l6.84-19.252l1.444-4.031
		c0.276-0.728,0.585-1.51,0.825-2.302l0.88-2.457c9.924,1.403,19.609,0.789,30.013-2.757l2.584-1.061
		c3.072-1.369,3.347-1.529,7.933-4.202c3.419-2.214,3.778-2.511,8.157-6.157c3.578-3.327,4.13-3.997,7.729-8.357
		c2.2-2.808,3.232-4.646,5.725-9.085C112.683,94.362,109.411,100.161,100.599,105.138"/>
</g>
</svg>
